<svg xmlns="http://www.w3.org/2000/svg" viewBox="0 0 671 632" width="671" height="632">
  <!-- Vetor rastreado da moldura orgânica original -->
  <path id="moldura-organica" d="M 189 0 L 188 2 L 165 4 L 138 10 L 104 22 L 67 43 L 39 68 L 19 96 L 12 110 L 5 130 L 2 149 L 0 150 L 0 199 L 2 200 L 3 211 L 9 235 L 22 269 L 39 300 L 60 327 L 77 343 L 101 361 L 139 383 L 184 406 L 208 421 L 238 446 L 257 471 L 264 488 L 267 502 L 266 523 L 260 542 L 246 564 L 232 577 L 216 586 L 198 592 L 191 600 L 190 612 L 193 619 L 199 625 L 220 629 L 221 631 L 267 631 L 268 629 L 279 628 L 302 622 L 332 611 L 364 596 L 403 574 L 435 553 L 466 530 L 500 501 L 526 476 L 563 435 L 590 400 L 614 364 L 638 322 L 655 287 L 664 262 L 668 238 L 670 237 L 670 205 L 668 204 L 667 192 L 657 160 L 647 141 L 632 121 L 613 103 L 584 83 L 553 65 L 515 47 L 487 36 L 452 25 L 381 10 L 329 4 L 288 2 L 287 0 Z M 554 70 L 605 102 L 631 126 L 643 142 L 654 163 L 664 197 L 666 214 L 665 238 L 656 274 L 633 323 L 605 371 L 562 430 L 532 464 L 505 491 L 457 532 L 402 570 L 345 601 L 311 615 L 288 622 L 259 627 L 229 627 L 200 621 L 194 612 L 194 603 L 197 598 L 202 594 L 214 591 L 229 584 L 246 570 L 260 551 L 265 540 L 270 522 L 271 504 L 268 488 L 256 462 L 246 449 L 230 433 L 200 411 L 127 372 L 95 352 L 76 337 L 59 320 L 38 291 L 24 264 L 13 235 L 6 206 L 3 178 L 4 155 L 9 130 L 15 113 L 26 92 L 39 74 L 57 56 L 87 35 L 114 22 L 138 14 L 164 8 L 197 4 L 240 3 L 291 5 L 342 9 L 400 17 L 441 26 L 484 39 L 517 52 Z"
        fill="#F5C84B" fill-rule="evenodd" clip-rule="evenodd"/>

</svg>
