<svg xmlns="http://www.w3.org/2000/svg" viewBox="0 0 671 632" width="671" height="632">
  <!-- Máscara vetorial para inserir retrato dentro da moldura -->
  <defs>
    <clipPath id="recorte-moldura-organica" clipPathUnits="userSpaceOnUse">
      <path d="M 554 70 L 605 102 L 631 126 L 643 142 L 654 163 L 664 197 L 666 214 L 665 238 L 656 274 L 633 323 L 605 371 L 562 430 L 532 464 L 505 491 L 457 532 L 402 570 L 345 601 L 311 615 L 288 622 L 259 627 L 229 627 L 200 621 L 194 612 L 194 603 L 197 598 L 202 594 L 214 591 L 229 584 L 246 570 L 260 551 L 265 540 L 270 522 L 271 504 L 268 488 L 256 462 L 246 449 L 230 433 L 200 411 L 127 372 L 95 352 L 76 337 L 59 320 L 38 291 L 24 264 L 13 235 L 6 206 L 3 178 L 4 155 L 9 130 L 15 113 L 26 92 L 39 74 L 57 56 L 87 35 L 114 22 L 138 14 L 164 8 L 197 4 L 240 3 L 291 5 L 342 9 L 400 17 L 441 26 L 484 39 L 517 52 Z"/>
    </clipPath>
  </defs>
  <path id="area-da-foto" d="M 554 70 L 605 102 L 631 126 L 643 142 L 654 163 L 664 197 L 666 214 L 665 238 L 656 274 L 633 323 L 605 371 L 562 430 L 532 464 L 505 491 L 457 532 L 402 570 L 345 601 L 311 615 L 288 622 L 259 627 L 229 627 L 200 621 L 194 612 L 194 603 L 197 598 L 202 594 L 214 591 L 229 584 L 246 570 L 260 551 L 265 540 L 270 522 L 271 504 L 268 488 L 256 462 L 246 449 L 230 433 L 200 411 L 127 372 L 95 352 L 76 337 L 59 320 L 38 291 L 24 264 L 13 235 L 6 206 L 3 178 L 4 155 L 9 130 L 15 113 L 26 92 L 39 74 L 57 56 L 87 35 L 114 22 L 138 14 L 164 8 L 197 4 L 240 3 L 291 5 L 342 9 L 400 17 L 441 26 L 484 39 L 517 52 Z" fill="#FFFFFF"/>

</svg>
